<?xml version="1.0" encoding="utf-8"?>
<!-- Generator: Adobe Illustrator 22.0.1, SVG Export Plug-In . SVG Version: 6.00 Build 0)  -->
<svg version="1.1" id="レイヤー_1" xmlns="http://www.w3.org/2000/svg" xmlns:xlink="http://www.w3.org/1999/xlink" x="0px"
	 y="0px" viewBox="0 0 480 600" style="enable-background:new 0 0 480 600;" xml:space="preserve">
<style type="text/css">
	.st0{fill:#595353;stroke:#000000;stroke-miterlimit:10;}
	.st1{fill:#FFFFFF;stroke:#000000;stroke-miterlimit:10;}
	.st2{fill:#F7F006;stroke:#000000;stroke-miterlimit:10;}
</style>
<path class="st0" d="M138.9,289.8c-8.6,5.7-10.6,17.1-15.4,26.2c-2.7,5.1-6.4,9.6-10.1,14.1c-1.9,2.3-3.9,4.6-6.5,6
	c-2.6,1.4-6.1,1.5-8.3-0.5c-1.2-16.6,2.8-33.3,8.7-48.9c4.8-12.7,12.5-25.4,23.8-33c-4.8-18.4-6-37.7-3.6-56.5
	c1.3-9.8,3.6-19.7,9.7-27.5c10.3-13.3,28.6-17.1,45.4-19c28.9-3.4,58-4.4,87-2.9c8.6,0.4,17.5,1.2,24.8,5.7
	c5.6,3.4,9.8,8.8,13.4,14.3c16.8,26,23.1,58.6,17.2,89c2.4,1.8,5,4.5,6.9,6.9c14.2,17.8,20.7,41.6,17.5,64.1
	c-3.3,1.3-6.6-1.6-8.9-4.4c-7.6-9.2-14.5-19-20.5-29.4c0.5,21.3-2.5,44-14.7,61.5c-9.3,13.3-24.6,21.5-40.4,25.3
	c-15.8,3.8-32.2,3.7-48.5,3.4c-17.6-0.3-36.5-1.3-50.4-12c-11.2-8.7-17.4-22.4-20.7-36.2C141.9,322.2,142,303.6,138.9,289.8z"/>
<path class="st1" d="M218,358.5c-11,0.5-22.8,0.8-32.2-5c-15-9.1-18.2-29.2-19.9-46.7c-1.3-14.2-2.1-30.2,7.6-40.7
	c6.7-7.2,17-9.9,26.7-11.6c17.4-3.1,35.2-4.5,52.9-3.9c5.3,0.1,10.9,0.6,15,3.8c4,3.2,5.8,8.3,7.2,13.2c2.9,10,5.1,20.2,6.6,30.5
	c1.9,12.9,2.6,26.7-3.2,38.3C267.3,359.8,240,357.6,218,358.5z"/>
<path class="st2" d="M172.1,378.2c-7.7,3.1-13.9,9.5-16.9,17.3c-0.5,1.2-0.8,2.8,0.1,3.7c0.6,0.6,1.6,0.7,2.5,0.8
	c5,0.3,10,0.1,15-0.5c0.5,3.6,0.3,7.3-0.7,10.8c5.6-0.4,10.9-3.1,14.5-7.4c0.7-0.9,1.5-1.9,2.6-2c2.4-0.3,3,3.1,4.3,5.1
	c1.2,1.8,3.5,2.8,5.7,2.4c4.8-7.6,3.4-18.4-3.1-24.5"/>
<path class="st2" d="M248.4,384.2c-3.4,8-4.5,17-3,25.5c2.7,1.1,5.6,2.2,8.5,1.8c2.9-0.4,5.8-2.7,5.6-5.6c-0.1-1.7-0.1-4.4,1.5-3.9
	c1.3,3.5,2.9,6.8,4.8,10c0.6,1,1.3,2,2.3,2.6c2.9,1.5,6.1-1.8,6.6-5c0.5-3.2-0.4-6.6,0.5-9.7c5.6,0.7,8.9,6.6,11.2,11.7
	c4.2-5.3,6.3-12.2,5.8-18.9c-0.2-2.2-0.6-4.5-1.9-6.3c-2.5-3.6-7.8-5.2-8.6-9.4"/>
<path class="st1" d="M183.8,220.5c-6.4,1.3-14.6,1.9-17.9-3.7c-0.9-1.4-1.2-3.1-1.6-4.7c-1.5-6.6-2.4-14.9,2.9-19
	c2.9-2.2,6.9-2.5,10.5-2.7c3.3-0.1,6.7-0.3,10-0.4c2.3-0.1,4.9-0.1,6.7,1.4c1.9,1.6,2.3,4.3,2.6,6.8c0.5,5,1,10.3-1,14.9
	s-7.3,8.3-12,6.6"/>
<path class="st1" d="M272.8,213.4c-3.5,0.7-7.1,1.5-10.6,1s-7.1-2.4-8.6-5.6c-1-2.2-0.9-4.7-0.8-7.1c0.1-3.1,0.2-6.1,0.3-9.2
	c0-0.8,0.1-1.6,0.5-2.2c0.6-1,2-1.3,3.1-1.6c3.6-0.7,7.1-1.4,10.7-2c4.7-0.9,10.1-1.6,13.8,1.4c5.2,4.3,3.2,12.7,5.9,18.9
	c-2.3,4.6-7.8,7.3-12.8,6.3C273.6,212.9,273.5,213.2,272.8,213.4z"/>
<path class="st2" d="M204.9,211c1.4,4.5,6,7.3,10.7,8c4.6,0.7,9.3-0.4,13.9-1.5c3.2-0.8,6.6-1.6,9.1-3.7s3.9-6.1,2.1-8.9
	c-11.9-1.8-24.1-1.1-35.7,2.1C204.7,208.1,205.3,210.1,204.9,211z"/>
<g>
	<g>
		<path d="M178,207.8c1.9,0,1.9-3,0-3C176.1,204.8,176.1,207.8,178,207.8L178,207.8z"/>
	</g>
</g>
<g>
	<g>
		<path d="M180.8,212.5c9.7,0,9.7-15,0-15C171.1,197.5,171.1,212.5,180.8,212.5L180.8,212.5z"/>
	</g>
</g>
<g>
	<g>
		<path d="M269.5,208.3c9.7,0,9.7-15,0-15C259.8,193.3,259.8,208.3,269.5,208.3L269.5,208.3z"/>
	</g>
</g>
</svg>
